# xmcd
#
# Track frame offsets:
#	150
#	16788
#	28377
#	51609
#	63719
#	78873
#	92093
#	107088
#	126035
#	141203
#	153079
#	164185
#
# Disc length: 2325 seconds
#
# Revision: 0
# Processed by: cddbd v1.5.1PL0 Copyright (c) Steve Scherf et al.
# Submitted via: dBpowerAMP V4.0
#
DISCID=a409130c
DTITLE=Honky Tonk Hangovers - Every Little Honky Tonk
DYEAR=1900
DGENRE=Alt-Country
TTITLE0=Every Little Honky Tonk
TTITLE1=Honky Tonk Hangover
TTITLE2=Highway 285
TTITLE3=The Honky Tonk Song
TTITLE4=Midnight Blue
TTITLE5=Long Gone, Long Forgotten
TTITLE6=Let Me Know
TTITLE7=Sugar Bear
TTITLE8=If Baby Ever Left
TTITLE9=Dang Fool
TTITLE10=Gonna Make It Alone
TTITLE11=That's Right
EXTD=
EXTT0=
EXTT1=
EXTT2=
EXTT3=
EXTT4=
EXTT5=
EXTT6=
EXTT7=
EXTT8=
EXTT9=
EXTT10=
EXTT11=
PLAYORDER=
